name C:\Users\u0101727\Documents\MyRepositories\upper-imu-dc\OpenSim\subject0\MA\ResultsMA\grid_4nodes_9dim\angles_11.mot
datacolumns 10
datarows 52
range 1175.01000000 1175.52000000
endheader 
time	clav_prot	clav_elev	scapula_abduction	scapula_elevation	scapula_upward_rot	scapula_winging	plane_elv	shoulder_elv	axial_rot	
       1175.01000000	        -50.00000000	         20.00000000	         15.00000000	         10.00000000	         60.00000000	          0.00000000	        -90.00000000	        100.00000000	        -30.00000000	
       1175.02000000	        -38.33333333	         20.00000000	         15.00000000	         10.00000000	         60.00000000	          0.00000000	        -90.00000000	        100.00000000	        -30.00000000	
       1175.03000000	        -26.66666667	         20.00000000	         15.00000000	         10.00000000	         60.00000000	          0.00000000	        -90.00000000	        100.00000000	        -30.00000000	
       1175.04000000	        -15.00000000	         20.00000000	         15.00000000	         10.00000000	         60.00000000	          0.00000000	        -90.00000000	        100.00000000	        -30.00000000	
       1175.05000000	        -50.00000000	        -10.00000000	        -40.00000000	        -10.00000000	         90.00000000	          0.00000000	        -90.00000000	        100.00000000	        -30.00000000	
       1175.06000000	        -38.33333333	        -10.00000000	        -40.00000000	        -10.00000000	         90.00000000	          0.00000000	        -90.00000000	        100.00000000	        -30.00000000	
       1175.07000000	        -26.66666667	        -10.00000000	        -40.00000000	        -10.00000000	         90.00000000	          0.00000000	        -90.00000000	        100.00000000	        -30.00000000	
       1175.08000000	        -15.00000000	        -10.00000000	        -40.00000000	        -10.00000000	         90.00000000	          0.00000000	        -90.00000000	        100.00000000	        -30.00000000	
       1175.09000000	        -50.00000000	          0.00000000	        -40.00000000	        -10.00000000	         90.00000000	          0.00000000	        -90.00000000	        100.00000000	        -30.00000000	
       1175.10000000	        -38.33333333	          0.00000000	        -40.00000000	        -10.00000000	         90.00000000	          0.00000000	        -90.00000000	        100.00000000	        -30.00000000	
       1175.11000000	        -26.66666667	          0.00000000	        -40.00000000	        -10.00000000	         90.00000000	          0.00000000	        -90.00000000	        100.00000000	        -30.00000000	
       1175.12000000	        -15.00000000	          0.00000000	        -40.00000000	        -10.00000000	         90.00000000	          0.00000000	        -90.00000000	        100.00000000	        -30.00000000	
       1175.13000000	        -50.00000000	         10.00000000	        -40.00000000	        -10.00000000	         90.00000000	          0.00000000	        -90.00000000	        100.00000000	        -30.00000000	
       1175.14000000	        -38.33333333	         10.00000000	        -40.00000000	        -10.00000000	         90.00000000	          0.00000000	        -90.00000000	        100.00000000	        -30.00000000	
       1175.15000000	        -26.66666667	         10.00000000	        -40.00000000	        -10.00000000	         90.00000000	          0.00000000	        -90.00000000	        100.00000000	        -30.00000000	
       1175.16000000	        -15.00000000	         10.00000000	        -40.00000000	        -10.00000000	         90.00000000	          0.00000000	        -90.00000000	        100.00000000	        -30.00000000	
       1175.17000000	        -50.00000000	         20.00000000	        -40.00000000	        -10.00000000	         90.00000000	          0.00000000	        -90.00000000	        100.00000000	        -30.00000000	
       1175.18000000	        -38.33333333	         20.00000000	        -40.00000000	        -10.00000000	         90.00000000	          0.00000000	        -90.00000000	        100.00000000	        -30.00000000	
       1175.19000000	        -26.66666667	         20.00000000	        -40.00000000	        -10.00000000	         90.00000000	          0.00000000	        -90.00000000	        100.00000000	        -30.00000000	
       1175.20000000	        -15.00000000	         20.00000000	        -40.00000000	        -10.00000000	         90.00000000	          0.00000000	        -90.00000000	        100.00000000	        -30.00000000	
       1175.21000000	        -50.00000000	        -10.00000000	        -21.66666667	        -10.00000000	         90.00000000	          0.00000000	        -90.00000000	        100.00000000	        -30.00000000	
       1175.22000000	        -38.33333333	        -10.00000000	        -21.66666667	        -10.00000000	         90.00000000	          0.00000000	        -90.00000000	        100.00000000	        -30.00000000	
       1175.23000000	        -26.66666667	        -10.00000000	        -21.66666667	        -10.00000000	         90.00000000	          0.00000000	        -90.00000000	        100.00000000	        -30.00000000	
       1175.24000000	        -15.00000000	        -10.00000000	        -21.66666667	        -10.00000000	         90.00000000	          0.00000000	        -90.00000000	        100.00000000	        -30.00000000	
       1175.25000000	        -50.00000000	          0.00000000	        -21.66666667	        -10.00000000	         90.00000000	          0.00000000	        -90.00000000	        100.00000000	        -30.00000000	
       1175.26000000	        -38.33333333	          0.00000000	        -21.66666667	        -10.00000000	         90.00000000	          0.00000000	        -90.00000000	        100.00000000	        -30.00000000	
       1175.27000000	        -26.66666667	          0.00000000	        -21.66666667	        -10.00000000	         90.00000000	          0.00000000	        -90.00000000	        100.00000000	        -30.00000000	
       1175.28000000	        -15.00000000	          0.00000000	        -21.66666667	        -10.00000000	         90.00000000	          0.00000000	        -90.00000000	        100.00000000	        -30.00000000	
       1175.29000000	        -50.00000000	         10.00000000	        -21.66666667	        -10.00000000	         90.00000000	          0.00000000	        -90.00000000	        100.00000000	        -30.00000000	
       1175.30000000	        -38.33333333	         10.00000000	        -21.66666667	        -10.00000000	         90.00000000	          0.00000000	        -90.00000000	        100.00000000	        -30.00000000	
       1175.31000000	        -26.66666667	         10.00000000	        -21.66666667	        -10.00000000	         90.00000000	          0.00000000	        -90.00000000	        100.00000000	        -30.00000000	
       1175.32000000	        -15.00000000	         10.00000000	        -21.66666667	        -10.00000000	         90.00000000	          0.00000000	        -90.00000000	        100.00000000	        -30.00000000	
       1175.33000000	        -50.00000000	         20.00000000	        -21.66666667	        -10.00000000	         90.00000000	          0.00000000	        -90.00000000	        100.00000000	        -30.00000000	
       1175.34000000	        -38.33333333	         20.00000000	        -21.66666667	        -10.00000000	         90.00000000	          0.00000000	        -90.00000000	        100.00000000	        -30.00000000	
       1175.35000000	        -26.66666667	         20.00000000	        -21.66666667	        -10.00000000	         90.00000000	          0.00000000	        -90.00000000	        100.00000000	        -30.00000000	
       1175.36000000	        -15.00000000	         20.00000000	        -21.66666667	        -10.00000000	         90.00000000	          0.00000000	        -90.00000000	        100.00000000	        -30.00000000	
       1175.37000000	        -50.00000000	        -10.00000000	         -3.33333333	        -10.00000000	         90.00000000	          0.00000000	        -90.00000000	        100.00000000	        -30.00000000	
       1175.38000000	        -38.33333333	        -10.00000000	         -3.33333333	        -10.00000000	         90.00000000	          0.00000000	        -90.00000000	        100.00000000	        -30.00000000	
       1175.39000000	        -26.66666667	        -10.00000000	         -3.33333333	        -10.00000000	         90.00000000	          0.00000000	        -90.00000000	        100.00000000	        -30.00000000	
       1175.40000000	        -15.00000000	        -10.00000000	         -3.33333333	        -10.00000000	         90.00000000	          0.00000000	        -90.00000000	        100.00000000	        -30.00000000	
       1175.41000000	        -50.00000000	          0.00000000	         -3.33333333	        -10.00000000	         90.00000000	          0.00000000	        -90.00000000	        100.00000000	        -30.00000000	
       1175.42000000	        -38.33333333	          0.00000000	         -3.33333333	        -10.00000000	         90.00000000	          0.00000000	        -90.00000000	        100.00000000	        -30.00000000	
       1175.43000000	        -26.66666667	          0.00000000	         -3.33333333	        -10.00000000	         90.00000000	          0.00000000	        -90.00000000	        100.00000000	        -30.00000000	
       1175.44000000	        -15.00000000	          0.00000000	         -3.33333333	        -10.00000000	         90.00000000	          0.00000000	        -90.00000000	        100.00000000	        -30.00000000	
       1175.45000000	        -50.00000000	         10.00000000	         -3.33333333	        -10.00000000	         90.00000000	          0.00000000	        -90.00000000	        100.00000000	        -30.00000000	
       1175.46000000	        -38.33333333	         10.00000000	         -3.33333333	        -10.00000000	         90.00000000	          0.00000000	        -90.00000000	        100.00000000	        -30.00000000	
       1175.47000000	        -26.66666667	         10.00000000	         -3.33333333	        -10.00000000	         90.00000000	          0.00000000	        -90.00000000	        100.00000000	        -30.00000000	
       1175.48000000	        -15.00000000	         10.00000000	         -3.33333333	        -10.00000000	         90.00000000	          0.00000000	        -90.00000000	        100.00000000	        -30.00000000	
       1175.49000000	        -50.00000000	         20.00000000	         -3.33333333	        -10.00000000	         90.00000000	          0.00000000	        -90.00000000	        100.00000000	        -30.00000000	
       1175.50000000	        -38.33333333	         20.00000000	         -3.33333333	        -10.00000000	         90.00000000	          0.00000000	        -90.00000000	        100.00000000	        -30.00000000	
       1175.51000000	        -26.66666667	         20.00000000	         -3.33333333	        -10.00000000	         90.00000000	          0.00000000	        -90.00000000	        100.00000000	        -30.00000000	
       1175.52000000	        -15.00000000	         20.00000000	         -3.33333333	        -10.00000000	         90.00000000	          0.00000000	        -90.00000000	        100.00000000	        -30.00000000	
